<svg xmlns="http://www.w3.org/2000/svg" viewBox="0 0 1100 760" role="img">
  <defs>
    <linearGradient id="desk" x1="0" x2="1" y1="0" y2="1">
      <stop offset="0" stop-color="#ffffff"/>
      <stop offset="1" stop-color="#dff6ef"/>
    </linearGradient>
    <linearGradient id="screen" x1="0" x2="1" y1="0" y2="1">
      <stop offset="0" stop-color="#0f2925"/>
      <stop offset="1" stop-color="#008f8a"/>
    </linearGradient>
    <filter id="shadow" x="-20%" y="-20%" width="140%" height="140%">
      <feDropShadow dx="0" dy="24" stdDeviation="28" flood-color="#12342f" flood-opacity=".20"/>
    </filter>
  </defs>
  <rect width="1100" height="760" rx="36" fill="#f7faf8"/>
  <path d="M76 515c98-88 194-110 320-71 138 43 191-49 323-41 150 10 238 91 305 173v118H76z" fill="#dff6ef"/>
  <ellipse cx="553" cy="638" rx="424" ry="56" fill="#12342f" opacity=".12"/>
  <g filter="url(#shadow)">
    <rect x="135" y="486" width="830" height="116" rx="26" fill="url(#desk)"/>
    <rect x="178" y="575" width="745" height="28" rx="14" fill="#c9dad4"/>
  </g>
  <g filter="url(#shadow)">
    <rect x="343" y="181" width="378" height="258" rx="18" fill="#17231f"/>
    <rect x="361" y="199" width="342" height="205" rx="9" fill="url(#screen)"/>
    <path d="M405 358c70-82 129-105 192-68 35 20 64 14 92-21v112H405z" fill="#73dfcf" opacity=".55"/>
    <circle cx="641" cy="247" r="35" fill="#f2b84b"/>
    <rect x="497" y="439" width="70" height="45" fill="#17231f"/>
    <rect x="448" y="478" width="168" height="24" rx="12" fill="#17231f"/>
  </g>
  <g filter="url(#shadow)">
    <rect x="176" y="273" width="153" height="263" rx="28" fill="#13221f"/>
    <rect x="192" y="303" width="121" height="195" rx="14" fill="#ffffff"/>
    <path d="M207 452c35-58 69-69 102-34v80H207z" fill="#008f8a"/>
    <circle cx="254" cy="351" r="35" fill="#f2b84b"/>
    <rect x="231" y="511" width="45" height="6" rx="3" fill="#d9e3df"/>
  </g>
  <g filter="url(#shadow)">
    <rect x="736" y="310" width="132" height="226" rx="24" fill="#26342f"/>
    <rect x="751" y="338" width="102" height="164" rx="12" fill="#0f2925"/>
    <path d="M758 452c33-44 67-53 95-18v68H758z" fill="#ee6b5e"/>
    <circle cx="804" cy="384" r="25" fill="#73dfcf"/>
  </g>
  <g filter="url(#shadow)">
    <path d="M842 407c42 3 76 40 76 86v36h-32v-36c0-29-20-52-44-55z" fill="#17231f"/>
    <path d="M768 407c-42 3-76 40-76 86v36h32v-36c0-29 20-52 44-55z" fill="#17231f"/>
    <rect x="676" y="489" width="58" height="92" rx="24" fill="#008f8a"/>
    <rect x="876" y="489" width="58" height="92" rx="24" fill="#008f8a"/>
  </g>
  <g filter="url(#shadow)">
    <circle cx="428" cy="526" r="52" fill="#ffffff"/>
    <circle cx="428" cy="526" r="35" fill="#102421"/>
    <circle cx="428" cy="526" r="16" fill="#73dfcf"/>
    <rect x="501" y="500" width="118" height="70" rx="18" fill="#ffffff"/>
    <circle cx="531" cy="535" r="17" fill="#008f8a"/>
    <circle cx="589" cy="535" r="17" fill="#f2b84b"/>
  </g>
  <g filter="url(#shadow)">
    <rect x="622" y="490" width="66" height="86" rx="20" fill="#102421"/>
    <rect x="635" y="505" width="40" height="56" rx="12" fill="#73dfcf"/>
    <path d="M646 486c3-18 15-28 31-29" fill="none" stroke="#102421" stroke-width="10" stroke-linecap="round"/>
  </g>
  <circle cx="168" cy="154" r="8" fill="#ee6b5e"/>
  <circle cx="884" cy="178" r="11" fill="#f2b84b"/>
  <circle cx="940" cy="274" r="7" fill="#008f8a"/>
</svg>
